# AST/ASF file generated using VICON BodyLanguage
# -----------------------------------------------
:version 1.10
:name VICON
:units
  mass 1.0
  length 0.45
  angle deg
:documentation
   .ast/.asf automatically generated from VICON data using
   VICON BodyBuilder and BodyLanguage model FoxedUp or BRILLIANT.MOD
:root
   order TX TY TZ RX RY RZ
   axis XYZ
   position 0 0 0  
   orientation 0 0 0 
:bonedata
  begin
     id 1 
     name lhipjoint
     direction 0.650112 -0.723553 0.232005 
     length 2.45805 
     axis 0 0 0  XYZ
  end
  begin
     id 2 
     name lfemur
     direction 0.34202 -0.939693 0  
     length 7.00073  
     axis 0 0 20  XYZ
    dof rx ry rz
    limits (-160.0 20.0)
           (-70.0 70.0)
           (-60.0 70.0)
  end
  begin
     id 3 
     name ltibia
     direction 0.34202 -0.939693 0   
     length 7.8748   
     axis 0 0 20   XYZ
    dof rx
    limits (-10.0 170.0)
  end
  begin
     id 4 
     name lfoot
     direction 0.0542825 -0.14914 0.987325   
     length 1.75978   
     axis -90 7.62852e-016 20   XYZ
    dof rx rz
    limits (-45.0 90.0)
           (-70.0 20.0)
  end
  begin
     id 5 
     name ltoes
     direction 1.53509e-011 -4.21906e-011 1   
     length 0.893912   
     axis -90 7.62852e-016 20   XYZ
    dof rx
    limits (-90.0 20.0)
  end
  begin
     id 6 
     name rhipjoint
     direction -0.637897 -0.733345 0.235145   
     length 2.42522  
     axis 0 0 0  XYZ 
  end
  begin
     id 7 
     name rfemur
     direction -0.34202 -0.939693 0   
     length 7.02549   
     axis 0 0 -20   XYZ
    dof rx ry rz
    limits (-160.0 20.0)
           (-70.0 70.0)
           (-70.0 60.0)
  end
  begin
     id 8 
     name rtibia
     direction -0.34202 -0.939693 0   
     length 7.71512   
     axis 0 0 -20   XYZ
    dof rx
    limits (-10.0 170.0)
 end
 begin
     id 9 
     name rfoot
     direction -0.0822618 -0.226012 0.970645   
     length 1.90014  
     axis -90 -7.62852e-016 -20   XYZ
    dof rx rz
    limits (-45.0 90.0)
           (-20.0 70.0)
  end
  begin
     id 10 
     name rtoes
     direction -1.53542e-011 -4.21872e-011 1   
     length 0.957341   
     axis -90 -7.62852e-016 -20   XYZ
    dof rx
    limits (-90.0 20.0)
  end
  begin
     id 11 
     name lowerback
     direction -0.0022947 0.999774 -0.0211557   
     length 1.89909   
     axis 0 0 0   XYZ
    dof rx ry rz
    limits (-20.0 45.0)
           (-30.0 30.0)
           (-30.0 30.0)
  end
  begin
     id 12 
     name upperback
     direction 0.0107737 0.998635 0.0511027   
     length 1.8853   
     axis 0 0 0   XYZ
    dof rx ry rz
    limits (-20.0 45.0)
           (-30.0 30.0)
           (-30.0 30.0)
  end
  begin
     id 13 
     name thorax
     direction 0.011824 0.998136 0.0598754   
     length 1.88911   
     axis 0 0 0   XYZ
    dof rx ry rz
    limits (-20.0 45.0)
           (-30.0 30.0)
           (-30.0 30.0)
  end
  begin
     id 14 
     name lowerneck
     direction -0.0685355 0.990319 0.120714   
     length 1.91222   
     axis 0 0 0   XYZ
    dof rx ry rz
    limits (-20.0 45.0)
           (-30.0 30.0)
           (-30.0 30.0)
  end
  begin
     id 15 
     name upperneck
     direction 0.0886204 0.955665 -0.280805   
     length 1.92526   
     axis 0 0 0   XYZ
    dof rx ry rz
    limits (-20.0 45.0)
           (-30.0 30.0)
           (-30.0 30.0)
  end
  begin
     id 16
     name head
     direction 0.0233423 0.993502 -0.111393  
     length 1.96056  
     axis 0 0 0   XYZ
    dof rx ry rz
    limits (-20.0 45.0)
           (-30.0 30.0)
           (-30.0 30.0)
  end
  begin
     id 17 
     name lclavicle
     direction 0.941873 0.32922 0.0670041  
     length 3.31705  
     axis 0 0 0   XYZ
    dof ry rz
    limits (-20.0 10.0)
           (0.0 20.0)
  end
  begin
     id 18 
     name lhumerus
     direction 1 -4.4898e-011 3.38707e-028   
     length 5.29277   
     axis 180 -30 -90   XYZ
    dof rx ry rz
    limits (-60.0 90.0)
           (-90.0 90.0)
           (-90.0 90.0)
  end
  begin
     id 19
     name lradius
     direction 1 -4.48952e-011 1.63213e-028   
     length 2.85226   
     axis 180 -30 -90   XYZ
    dof rx
    limits (-10.0 170.0)
  end
  begin
     id 20
     name lwrist
     direction 1 -4.49001e-011 1.27856e-027   
     length 1.42613   
     axis -1.61767e-015 90 90   XYZ
    dof ry
    limits (-180.0 0.0)
 end
  begin
     id 21 
     name lhand
     direction 1 -4.48976e-011 2.55931e-027   
     length 0.602097   
     axis -1.63363e-015 90 90   XYZ
    dof rx rz
    limits (-90.0 90.0)
           (-45.0 45.0)
  end
  begin
     id 22 
     name lfingers
     direction 1 -4.48986e-011 5.11684e-027   
     length 0.485426   
     axis -3.26723e-015 90 90   XYZ
    dof rx
    limits (0.0 90.0)
  end
  begin
     id 23
     name lthumb
     direction 0.707107 -6.34915e-011 0.707107   
     length 0.696978   
     axis -90 45 -2.25915e-014   XYZ
    dof rx rz
    limits (-45.0 45.0)
           (-45.0 45.0)
  end
  begin
     id 24 
     name rclavicle
     direction -0.939974 0.327078 0.0973096   
     length 3.10337  
     axis 0 0 0   XYZ 
    dof ry rz
    limits (-10.0 20.0)
           (-20.0 0.0)
  end
  begin
     id 25 
     name rhumerus
     direction -1 -4.48975e-011 1.83745e-027  
     length 5.13304   
     axis 180 30 90   XYZ
    dof rx ry rz
    limits (-90.0 60.0)
           (-90.0 90.0)
           (-90.0 90.0)
  end
  begin
     id 26 
     name rradius
     direction -1 -4.48977e-011 7.1775e-029   
     length 2.74305   
     axis 180 30 90   XYZ
    dof rx
    limits (-10.0 170.0)
  end
  begin
     id 27 
     name rwrist
     direction -1 -4.48977e-011 1.27963e-027   
     length 1.37152   
     axis -1.61767e-015 -90 -90   XYZ
    dof ry
    limits (-180.0 0.0)
  end
  begin
     id 28
     name rhand
     direction -1 -4.4888e-011 2.56782e-027   
     length 0.767976   
     axis -1.63363e-015 -90 -90   XYZ
    dof rx rz
    limits (-90.0 90.0)
           (-45.0 45.0)
  end
  begin
     id 29
     name rfingers
     direction -1 -4.48947e-011 5.12384e-027   
     length 0.619162   
     axis -3.26723e-015 -90 -90   XYZ
    dof rx
    limits (0.0 90.0)
  end
  begin
     id 30
     name rthumb
     direction -0.707107 -6.34857e-011 0.707107   
     length 0.888997   
     axis -90 -45 2.25915e-014   XYZ
    dof rx rz
    limits (-45.0 45.0)
           (-45.0 45.0)
  end
:hierarchy
  begin
    root lhipjoint rhipjoint lowerback
    lhipjoint lfemur
    lfemur ltibia
    ltibia lfoot
    lfoot ltoes
    rhipjoint rfemur
    rfemur rtibia
    rtibia rfoot
    rfoot rtoes
    lowerback upperback
    upperback thorax
    thorax lowerneck lclavicle rclavicle
    lowerneck upperneck
    upperneck head
    lclavicle lhumerus
    lhumerus lradius
    lradius lwrist
    lwrist lhand lthumb
    lhand lfingers
    rclavicle rhumerus
    rhumerus rradius
    rradius rwrist
    rwrist rhand rthumb
    rhand rfingers
  end

#!OML:ASF F:\VICON\USERDATA\INSTALL\rory3\rory3.ASF
:FULLY-SPECIFIED
:DEGREES
1307
root 0.45594 16.5806 -1.81095 10.4635 -12.7479 -8.7084
lowerback 23.0117 -0.608593 -9.62325
upperback 12.2153 -2.86943 -4.55971
thorax 0.926717 -1.80637 1.1202
lowerneck -11.5795 -9.27742 -18.4294
upperneck 7.13983 -12.5705 24.1208
head 6.99784 -5.42423 9.73447
rclavicle -4.77083e-014 -1.01778e-013
rhumerus 63.2983 45.275 21.2381
rradius 84.4796
rwrist -8.99487
rhand -14.9135 7.69131
rfingers 7.12502
rthumb 11.2481 -21.9871
lclavicle -4.77083e-014 -1.01778e-013
lhumerus 40.726 -18.6036 45.0458
lradius 39.8002
lwrist -10.2874
lhand -4.35216 20.3377
lfingers 7.12502
lthumb 21.4158 49.174
rfemur -31.2138 8.17603 24.7978
rtibia 37.6473
rfoot -17.9264 5.79854
rtoes -18.2903
lfemur -33.0291 3.94737 -9.24918
ltibia 49.8835
lfoot -23.2776 6.43714
ltoes -18.2454
1308
root 0.442384 16.6028 -1.79853 10.4293 -12.4707 -8.87043
lowerback 22.7712 -0.617541 -9.39941
upperback 12.0957 -2.81733 -4.67077
thorax 0.881745 -1.75943 0.864328
lowerneck -11.5862 -9.37571 -18.4801
upperneck 7.37896 -12.7502 24.1663
head 7.122 -5.50367 9.7383
rclavicle 4.13472e-014 9.54166e-015
rhumerus 62.877 44.9071 21.5807
rradius 84.8136
rwrist -9.08205
rhand -14.8448 7.89378
rfingers 7.12502
rthumb 11.3145 -21.781
lclavicle 4.13472e-014 9.54166e-015
lhumerus 40.7126 -19.2321 44.7394
lradius 39.9868
lwrist -10.3175
lhand -4.57173 20.6276
lfingers 7.12502
lthumb 21.2048 49.4878
rfemur -30.7691 8.18751 25.0302
rtibia 37.1308
rfoot -17.7554 5.50293
rtoes -18.9433
lfemur -32.7494 3.65924 -8.97538
ltibia 49.4821
lfoot -23.0501 6.43748
ltoes -18.1938
1309
root 0.430281 16.6251 -1.78487 10.4273 -12.1377 -8.98394
lowerback 22.5074 -0.651196 -9.11325
upperback 11.9646 -2.78453 -4.82825
thorax 0.831136 -1.71699 0.528169
lowerneck -11.4955 -9.43806 -18.3241
upperneck 7.48041 -12.8889 24.1093
head 7.15276 -5.57165 9.67082
rclavicle 2.54444e-014 -9.54166e-015
rhumerus 62.2861 44.5935 21.6119
rradius 85.0869
rwrist -9.07946
rhand -14.6704 7.99474
rfingers 7.12502
rthumb 11.4827 -21.6708
lclavicle 2.54444e-014 -9.54166e-015
lhumerus 40.7643 -19.9364 44.2894
lradius 40.2149
lwrist -10.0551
lhand -4.4431 20.6543
lfingers 7.12502
lthumb 21.3284 49.5006
rfemur -30.3986 8.13002 25.2122
rtibia 36.6562
rfoot -17.6154 5.28969
rtoes -19.1797
lfemur -32.5403 3.3494 -8.76478
ltibia 49.0755
lfoot -22.9191 6.60412
ltoes -19.0037
1310
root 0.417535 16.6435 -1.77436 10.5667 -11.8245 -8.97615
lowerback 22.1439 -0.707916 -9.09657
upperback 11.7849 -2.8204 -4.91748
thorax 0.805497 -1.72308 0.426279
lowerneck -11.5603 -9.45279 -18.244
upperneck 7.60974 -12.9202 24.0065
head 7.19617 -5.58097 9.61425
rclavicle 0 1.59028e-014
rhumerus 61.9672 44.1418 21.7974
rradius 85.3117
rwrist -9.12353
rhand -14.4177 8.10353
rfingers 7.12502
rthumb 11.7263 -21.5483
lclavicle 0 1.59028e-014
lhumerus 40.6201 -20.3505 44.1288
lradius 40.3788
lwrist -9.85821
lhand -4.0383 20.6099
lfingers 7.12502
lthumb 21.7172 49.4117
rfemur -30.281 8.07671 25.242
rtibia 36.2386
rfoot -17.4443 5.11106
rtoes -19.1386
lfemur -32.5326 3.02161 -8.6826
ltibia 48.6727
lfoot -22.77 6.64773
ltoes -18.8588
1311
root 0.404197 16.6633 -1.7646 10.5942 -11.5602 -8.86602
lowerback 21.8682 -0.730478 -9.19021
upperback 11.6368 -2.84217 -5.01502
thorax 0.779982 -1.72811 0.374639
lowerneck -11.7079 -9.5337 -18.3229
upperneck 7.82488 -13.0469 24.058
head 7.32938 -5.62663 9.62932
rclavicle 3.18055e-015 -2.54444e-014
rhumerus 61.6983 43.6176 21.9982
rradius 85.4492
rwrist -9.05041
rhand -14.4354 8.22516
rfingers 7.12502
rthumb 11.7092 -21.4276
lclavicle 3.18055e-015 -2.54444e-014
lhumerus 40.5227 -20.7964 43.8938
lradius 40.4867
lwrist -9.58898
lhand -3.95447 20.4768
lfingers 7.12502
lthumb 21.7977 49.2693
rfemur -30.0874 8.08599 25.1603
rtibia 35.8538
rfoot -17.2368 4.86834
rtoes -19.1572
lfemur -32.3977 2.71992 -8.72416
ltibia 48.2661
lfoot -22.5871 6.67866
ltoes -18.795
1312
root 0.391416 16.6857 -1.75163 10.4971 -11.3387 -8.75245
lowerback 21.6345 -0.708786 -9.20147
upperback 11.5369 -2.79621 -5.16223
thorax 0.774572 -1.69674 0.210609
lowerneck -11.7245 -9.63639 -18.4394
upperneck 7.98048 -13.2374 24.2808
head 7.45542 -5.70663 9.70764
rclavicle -1.59028e-014 4.13472e-014
rhumerus 61.2759 43.1494 21.9123
rradius 85.4139
rwrist -8.88993
rhand -14.4828 8.73867
rfingers 7.12502
rthumb 11.6636 -20.9167
lclavicle -1.59028e-014 4.13472e-014
lhumerus 40.6536 -21.4538 43.3064
lradius 40.6528
lwrist -9.05101
lhand -4.12667 20.5146
lfingers 7.12502
lthumb 21.6323 49.3262
rfemur -29.7419 8.13044 25.0807
rtibia 35.496
rfoot -17.0608 4.55041
rtoes -19.7632
lfemur -32.1035 2.44037 -8.78375
ltibia 47.8837
lfoot -22.478 6.85563
ltoes -19.1548
